<svg xmlns="http://www.w3.org/2000/svg" xmlns:xlink="http://www.w3.org/1999/xlink" contentStyleType="text/css" data-diagram-type="ACTIVITY" height="294px" preserveAspectRatio="none" style="width:277px;height:294px;background:#FFFFFF;" version="1.1" viewBox="0 0 277 294" width="277px" zoomAndPan="magnify"><defs/><g><ellipse cx="141.1265" cy="20" fill="#222222" rx="10" ry="10" style="stroke:#222222;stroke-width:1;"/><rect fill="#FFFFFF" fill-opacity="0.00000" height="200.1003" style="stroke:#000000;stroke-width:1.5;" width="255.2531" x="11" y="41.602"/><path d="M261.2531,41.602 L261.2531,53.6699 L251.2531,63.6699 L11,63.6699 " fill="#FFFFFF" fill-opacity="0.00000" style="stroke:#000000;stroke-width:1.5;"/><text fill="#000000" font-family="sans-serif" font-size="14" font-weight="bold" lengthAdjust="spacing" textLength="53.4938" x="14" y="57.5679">process</text><text fill="#000000" font-family="sans-serif" font-size="14" lengthAdjust="spacing" textLength="183.1193" x="71.1338" y="57.5679">Proceso de implementaci&#243;n</text><rect fill="#F1F1F1" height="36.3441" rx="12.5" ry="12.5" style="stroke:#181818;stroke-width:0.5;" width="177.5371" x="52.358" y="80.6699"/><text fill="#000000" font-family="sans-serif" font-size="12" lengthAdjust="spacing" textLength="157.5371" x="62.358" y="103.498">Prepare for implementation</text><rect fill="#F1F1F1" height="36.3441" rx="12.5" ry="12.5" style="stroke:#181818;stroke-width:0.5;" width="159.801" x="61.226" y="137.014"/><text fill="#000000" font-family="sans-serif" font-size="12" lengthAdjust="spacing" textLength="139.801" x="71.226" y="159.8421">Perform implementation</text><rect fill="#F1F1F1" height="36.3441" rx="12.5" ry="12.5" style="stroke:#181818;stroke-width:0.5;" width="214.8574" x="33.6978" y="193.3581"/><text fill="#000000" font-family="sans-serif" font-size="12" lengthAdjust="spacing" textLength="194.8574" x="43.6978" y="216.1862">Manage results of implementation</text><ellipse cx="141.1265" cy="272.7022" fill="#FFFFFF" fill-opacity="0.00000" rx="11" ry="11" style="stroke:#222222;stroke-width:1;"/><ellipse cx="141.1265" cy="272.7022" fill="#222222" rx="6" ry="6" style="stroke:#222222;stroke-width:1;"/><line style="stroke:#181818;stroke-width:1;" x1="141.1265" x2="141.1265" y1="117.014" y2="137.014"/><polygon fill="#181818" points="137.1265,127.014,141.1265,137.014,145.1265,127.014,141.1265,131.014" style="stroke:#181818;stroke-width:1;"/><line style="stroke:#181818;stroke-width:1;" x1="141.1265" x2="141.1265" y1="173.3581" y2="193.3581"/><polygon fill="#181818" points="137.1265,183.3581,141.1265,193.3581,145.1265,183.3581,141.1265,187.3581" style="stroke:#181818;stroke-width:1;"/><line style="stroke:#181818;stroke-width:1;" x1="141.1265" x2="141.1265" y1="30" y2="80.6699"/><polygon fill="#181818" points="137.1265,70.6699,141.1265,80.6699,145.1265,70.6699,141.1265,74.6699" style="stroke:#181818;stroke-width:1;"/><line style="stroke:#181818;stroke-width:1;" x1="141.1265" x2="141.1265" y1="229.7022" y2="261.7022"/><polygon fill="#181818" points="137.1265,251.7022,141.1265,261.7022,145.1265,251.7022,141.1265,255.7022" style="stroke:#181818;stroke-width:1;"/><!--SRC=[ROp13S8m40J_LyKgJvS0DI2b1IjiaANOPzqTBqHLb41ZcBmYmMUrqiokHxQGFg94qOOffMwwq3qbp7jJN8bI-yRA5dafxrURy13WD1l7b5ZL3iRtwBnZsY3r7xhabc-4qUzRE7JzaUGf7jhb0m00]--></g></svg>