<svg xmlns="http://www.w3.org/2000/svg" xmlns:xlink="http://www.w3.org/1999/xlink" contentStyleType="text/css" data-diagram-type="DESCRIPTION" height="797px" preserveAspectRatio="none" style="width:496px;height:797px;background:#FFFFFF;" version="1.1" viewBox="0 0 496 797" width="496px" zoomAndPan="magnify"><defs/><g><!--cluster Backend--><g id="cluster_Backend"><rect fill="#FFFFFF" fill-opacity="0.00000" height="784" rx="2.5" ry="2.5" style="stroke:#181818;stroke-width:1;" width="394" x="7" y="7"/><rect fill="#FFFFFF" fill-opacity="0.00000" height="10" style="stroke:#181818;stroke-width:1;" width="15" x="381" y="12"/><rect fill="#FFFFFF" fill-opacity="0.00000" height="2" style="stroke:#181818;stroke-width:1;" width="4" x="379" y="14"/><rect fill="#FFFFFF" fill-opacity="0.00000" height="2" style="stroke:#181818;stroke-width:1;" width="4" x="379" y="18"/><text fill="#000000" font-family="sans-serif" font-size="14" font-weight="bold" lengthAdjust="spacing" textLength="58.3584" x="174.8208" y="34.5332">Backend</text></g><!--entity Tools--><g id="elem_Tools"><rect fill="#F1F1F1" height="47.6094" rx="2.5" ry="2.5" style="stroke:#181818;stroke-width:0.5;" width="114.71" x="261.5" y="499"/><rect fill="#F1F1F1" height="10" style="stroke:#181818;stroke-width:0.5;" width="15" x="356.21" y="504"/><rect fill="#F1F1F1" height="2" style="stroke:#181818;stroke-width:0.5;" width="4" x="354.21" y="506"/><rect fill="#F1F1F1" height="2" style="stroke:#181818;stroke-width:0.5;" width="4" x="354.21" y="510"/><text fill="#000000" font-family="sans-serif" font-size="14" lengthAdjust="spacing" textLength="74.71" x="276.5" y="533.5332">Agent Tools</text></g><!--entity MR--><g id="elem_MR"><rect fill="#F1F1F1" height="47.6094" rx="2.5" ry="2.5" style="stroke:#181818;stroke-width:0.5;" width="142.7168" x="29.5" y="499"/><rect fill="#F1F1F1" height="10" style="stroke:#181818;stroke-width:0.5;" width="15" x="152.2168" y="504"/><rect fill="#F1F1F1" height="2" style="stroke:#181818;stroke-width:0.5;" width="4" x="150.2168" y="506"/><rect fill="#F1F1F1" height="2" style="stroke:#181818;stroke-width:0.5;" width="4" x="150.2168" y="510"/><text fill="#000000" font-family="sans-serif" font-size="14" lengthAdjust="spacing" textLength="102.7168" x="44.5" y="533.5332">Message Router</text></g><!--entity Agent--><g id="elem_Agent"><rect fill="#F1F1F1" height="47.6094" rx="2.5" ry="2.5" style="stroke:#181818;stroke-width:0.5;" width="76.5859" x="23.5" y="271"/><rect fill="#F1F1F1" height="10" style="stroke:#181818;stroke-width:0.5;" width="15" x="80.0859" y="276"/><rect fill="#F1F1F1" height="2" style="stroke:#181818;stroke-width:0.5;" width="4" x="78.0859" y="278"/><rect fill="#F1F1F1" height="2" style="stroke:#181818;stroke-width:0.5;" width="4" x="78.0859" y="282"/><text fill="#000000" font-family="sans-serif" font-size="14" lengthAdjust="spacing" textLength="36.5859" x="38.5" y="305.5332">Agent</text></g><!--entity LLM--><g id="elem_LLM"><rect fill="#F1F1F1" height="47.6094" rx="2.5" ry="2.5" style="stroke:#181818;stroke-width:0.5;" width="93.6895" x="23" y="43"/><rect fill="#F1F1F1" height="10" style="stroke:#181818;stroke-width:0.5;" width="15" x="96.6895" y="48"/><rect fill="#F1F1F1" height="2" style="stroke:#181818;stroke-width:0.5;" width="4" x="94.6895" y="50"/><rect fill="#F1F1F1" height="2" style="stroke:#181818;stroke-width:0.5;" width="4" x="94.6895" y="54"/><text fill="#000000" font-family="sans-serif" font-size="14" lengthAdjust="spacing" textLength="53.6895" x="38" y="77.5332">LLM API</text></g><!--entity UserDB--><g id="elem_UserDB"><rect fill="#F1F1F1" height="47.6094" rx="2.5" ry="2.5" style="stroke:#181818;stroke-width:0.5;" width="167.5928" x="23" y="727"/><rect fill="#F1F1F1" height="10" style="stroke:#181818;stroke-width:0.5;" width="15" x="170.5928" y="732"/><rect fill="#F1F1F1" height="2" style="stroke:#181818;stroke-width:0.5;" width="4" x="168.5928" y="734"/><rect fill="#F1F1F1" height="2" style="stroke:#181818;stroke-width:0.5;" width="4" x="168.5928" y="738"/><text fill="#000000" font-family="sans-serif" font-size="14" lengthAdjust="spacing" textLength="127.5928" x="38" y="761.5332">DB connector (User)</text></g><!--entity BusinessDB--><g id="elem_BusinessDB"><rect fill="#F1F1F1" height="47.6094" rx="2.5" ry="2.5" style="stroke:#181818;stroke-width:0.5;" width="194.8408" x="189.5" y="271"/><rect fill="#F1F1F1" height="10" style="stroke:#181818;stroke-width:0.5;" width="15" x="364.3408" y="276"/><rect fill="#F1F1F1" height="2" style="stroke:#181818;stroke-width:0.5;" width="4" x="362.3408" y="278"/><rect fill="#F1F1F1" height="2" style="stroke:#181818;stroke-width:0.5;" width="4" x="362.3408" y="282"/><text fill="#000000" font-family="sans-serif" font-size="14" lengthAdjust="spacing" textLength="154.8408" x="204.5" y="305.5332">DB connector (Business)</text></g><!--entity Business data--><g id="elem_Business data"><ellipse cx="145" cy="295" fill="#F1F1F1" rx="8" ry="8" style="stroke:#181818;stroke-width:0.5;"/><text fill="#000000" font-family="sans-serif" font-size="14" lengthAdjust="spacing" textLength="87.9443" x="101.0278" y="326.5332">Business data</text></g><!--entity Get available tools--><g id="elem_Get available tools"><ellipse cx="272" cy="409" fill="#F1F1F1" rx="8" ry="8" style="stroke:#181818;stroke-width:0.5;"/><text fill="#000000" font-family="sans-serif" font-size="14" lengthAdjust="spacing" textLength="115.1787" x="214.4106" y="440.5332">Get available tools</text></g><!--entity Context--><g id="elem_Context"><ellipse cx="66" cy="181" fill="#F1F1F1" rx="8" ry="8" style="stroke:#181818;stroke-width:0.5;"/><text fill="#000000" font-family="sans-serif" font-size="14" lengthAdjust="spacing" textLength="48.248" x="41.876" y="212.5332">Context</text></g><!--entity Responses--><g id="elem_Responses"><ellipse cx="217" cy="523" fill="#F1F1F1" rx="8" ry="8" style="stroke:#181818;stroke-width:0.5;"/><text fill="#000000" font-family="sans-serif" font-size="14" lengthAdjust="spacing" textLength="70.041" x="181.9795" y="554.5332">Responses</text></g><!--entity User Info--><g id="elem_User Info"><ellipse cx="104" cy="637" fill="#F1F1F1" rx="8" ry="8" style="stroke:#181818;stroke-width:0.5;"/><text fill="#000000" font-family="sans-serif" font-size="14" lengthAdjust="spacing" textLength="56.7998" x="75.6001" y="668.5332">User Info</text></g><!--entity Consult--><g id="elem_Consult"><ellipse cx="81" cy="409" fill="#F1F1F1" rx="8" ry="8" style="stroke:#181818;stroke-width:0.5;"/><text fill="#000000" font-family="sans-serif" font-size="14" lengthAdjust="spacing" textLength="47.4688" x="57.2656" y="440.5332">Consult</text></g><!--entity Front--><g id="elem_Front"><rect fill="#F1F1F1" height="47.6094" rx="2.5" ry="2.5" style="stroke:#181818;stroke-width:0.5;" width="72.6758" x="417.5" y="499"/><rect fill="#F1F1F1" height="10" style="stroke:#181818;stroke-width:0.5;" width="15" x="470.1758" y="504"/><rect fill="#F1F1F1" height="2" style="stroke:#181818;stroke-width:0.5;" width="4" x="468.1758" y="506"/><rect fill="#F1F1F1" height="2" style="stroke:#181818;stroke-width:0.5;" width="4" x="468.1758" y="510"/><text fill="#000000" font-family="sans-serif" font-size="14" lengthAdjust="spacing" textLength="32.6758" x="432.5" y="533.5332">Front</text></g><!--link Agent to Business data--><g id="link_Agent_Business data"><path d="M100.58,295 C112.38,295 114.18,295 125.98,295 " fill="#FFFFFF" fill-opacity="0.00000" id="Agent-to-Business data" style="stroke:#181818;stroke-width:1;"/><path d="M132.9018,286.5428 A9,9 0 0 0 132.9018 303.4572" fill="#FFFFFF" fill-opacity="0.00000" style="stroke:#181818;stroke-width:1.5;"/></g><!--link Business data to BusinessDB--><g id="link_Business data_BusinessDB"><path d="M154.15,295 C165.91,295 177.68,295 189.44,295 " fill="#FFFFFF" fill-opacity="0.00000" id="Business data-BusinessDB" style="stroke:#181818;stroke-width:1;"/></g><!--link Agent to Get available tools--><g id="link_Agent_Get available tools"><path d="M100.52,316.54 C150.72,343.32 226.5571,383.763 254.1671,398.493 " fill="#FFFFFF" fill-opacity="0.00000" id="Agent-to-Get available tools" style="stroke:#181818;stroke-width:1;"/><path d="M264.255,394.2893 A9,9 0 0 0 256.2933 409.2128" fill="#FFFFFF" fill-opacity="0.00000" style="stroke:#181818;stroke-width:1.5;"/></g><!--link Get available tools to Tools--><g id="link_Get available tools_Tools"><path d="M275.38,418.05 C282.37,434.71 298.63,473.47 309.21,498.67 " fill="#FFFFFF" fill-opacity="0.00000" id="Get available tools-Tools" style="stroke:#181818;stroke-width:1;"/></g><!--link Context to Agent--><g id="link_Context_Agent"><path d="M65.71,190.05 C65.12,206.71 63.73,245.47 62.83,270.67 " fill="#FFFFFF" fill-opacity="0.00000" id="Context-Agent" style="stroke:#181818;stroke-width:1;"/></g><!--link LLM to Context--><g id="link_LLM_Context"><path d="M69.17,91.21 C68.27,116.32 67.2478,145.0364 66.6478,161.7964 " fill="#FFFFFF" fill-opacity="0.00000" id="LLM-to-Context" style="stroke:#181818;stroke-width:1;"/><path d="M74.8519,169.0164 A9,9 0 0 0 57.9483 168.4112" fill="#FFFFFF" fill-opacity="0.00000" style="stroke:#181818;stroke-width:1.5;"/></g><!--reverse link Responses to Front--><g id="link_Responses_Front"><path d="M226.0207,504.696 C232.6607,491.846 241.94,478.23 261.5,469 C310.54,445.87 332.15,451.59 383.5,469 C401.17,474.99 417.88,487.38 430.6,498.78 " fill="#FFFFFF" fill-opacity="0.00000" id="Responses-backto-Front" style="stroke:#181818;stroke-width:1;"/><path d="M230.3565,514.7278 A9,9 0 0 0 215.3297 506.9629" fill="#FFFFFF" fill-opacity="0.00000" style="stroke:#181818;stroke-width:1.5;"/></g><!--link MR to Responses--><g id="link_MR_Responses"><path d="M172.59,523 C184.39,523 196.18,523 207.98,523 " fill="#FFFFFF" fill-opacity="0.00000" id="MR-Responses" style="stroke:#181818;stroke-width:1;"/></g><!--link MR to User Info--><g id="link_MR_User Info"><path d="M101.62,547.21 C102.29,572.32 103.0616,601.0336 103.5116,617.7936 " fill="#FFFFFF" fill-opacity="0.00000" id="MR-to-User Info" style="stroke:#181818;stroke-width:1;"/><path d="M112.1516,624.4859 A9,9 0 0 0 95.2432 624.9399" fill="#FFFFFF" fill-opacity="0.00000" style="stroke:#181818;stroke-width:1.5;"/></g><!--reverse link Consult to MR--><g id="link_Consult_MR"><path d="M84.195,427.8948 C87.165,444.5548 92.33,473.47 96.83,498.67 " fill="#FFFFFF" fill-opacity="0.00000" id="Consult-backto-MR" style="stroke:#181818;stroke-width:1;"/><path d="M74.6543,422.5647 A9,9 0 0 0 91.3062 419.5961" fill="#FFFFFF" fill-opacity="0.00000" style="stroke:#181818;stroke-width:1.5;"/></g><!--link Agent to Consult--><g id="link_Agent_Consult"><path d="M65.94,319.21 C70.2,344.32 76.76,383.03 79.61,399.79 " fill="#FFFFFF" fill-opacity="0.00000" id="Agent-Consult" style="stroke:#181818;stroke-width:1;"/></g><!--link User Info to UserDB--><g id="link_User Info_UserDB"><path d="M104.22,646.05 C104.66,662.71 105.7,701.47 106.37,726.67 " fill="#FFFFFF" fill-opacity="0.00000" id="User Info-UserDB" style="stroke:#181818;stroke-width:1;"/></g><!--SRC=[VP7FRi8m3CRlVGehbx537uA2DY5HQQh62N78KW-XPGdA7pHfujrnd0QgZj5BRNy_Vt4SPR-Frg09yEAi2PMwverKNsXw-As0lbjTpFVfzswjzWAapz4KQj5xkKVeR0pec6kxkqwiSJILr-iMvcyh1YYUoik6CcDG1UjWjl7edXbDqR9vJ3VH7moDc3jAHbtSzfJdWQEpYifSst9f1xMhPo1A1_GoI961cmjHkhuF5PS-kRnY07cI1oq_D4BWZMQCTqfOh1zHnInH2tez_0c3GkigXro5VBSjlpDFI6A7dXRaiJYs7T_m7u7zqdfXPJwjg4PI78xoKOS_LnqfMSfFD4m-CZnN5m00]--></g></svg>