<svg xmlns="http://www.w3.org/2000/svg" xmlns:xlink="http://www.w3.org/1999/xlink" contentStyleType="text/css" data-diagram-type="DESCRIPTION" height="683px" preserveAspectRatio="none" style="width:524px;height:683px;background:#FFFFFF;" version="1.1" viewBox="0 0 524 683" width="524px" zoomAndPan="magnify"><defs/><g><!--cluster Backend--><g id="cluster_Backend"><rect fill="#FFFFFF" fill-opacity="0.00000" height="599.07" rx="2.5" ry="2.5" style="stroke:#181818;stroke-width:1;" width="511" x="7" y="78.07"/><rect fill="#FFFFFF" fill-opacity="0.00000" height="10" style="stroke:#181818;stroke-width:1;" width="15" x="498" y="83.07"/><rect fill="#FFFFFF" fill-opacity="0.00000" height="2" style="stroke:#181818;stroke-width:1;" width="4" x="496" y="85.07"/><rect fill="#FFFFFF" fill-opacity="0.00000" height="2" style="stroke:#181818;stroke-width:1;" width="4" x="496" y="89.07"/><text fill="#000000" font-family="sans-serif" font-size="14" font-weight="bold" lengthAdjust="spacing" textLength="59.9058" x="232.5471" y="106.0359">Backend</text></g><!--entity Tools--><g id="elem_Tools"><rect fill="#F1F1F1" height="49.0679" rx="2.5" ry="2.5" style="stroke:#181818;stroke-width:0.5;" width="117.8397" x="239.08" y="612.07"/><rect fill="#F1F1F1" height="10" style="stroke:#181818;stroke-width:0.5;" width="15" x="336.9197" y="617.07"/><rect fill="#F1F1F1" height="2" style="stroke:#181818;stroke-width:0.5;" width="4" x="334.9197" y="619.07"/><rect fill="#F1F1F1" height="2" style="stroke:#181818;stroke-width:0.5;" width="4" x="334.9197" y="623.07"/><text fill="#000000" font-family="sans-serif" font-size="14" lengthAdjust="spacing" textLength="77.8397" x="254.08" y="647.0359">Agent Tools</text></g><!--entity MR--><g id="elem_MR"><rect fill="#F1F1F1" height="49.0679" rx="2.5" ry="2.5" style="stroke:#181818;stroke-width:0.5;" width="146.5676" x="22.72" y="247.54"/><rect fill="#F1F1F1" height="10" style="stroke:#181818;stroke-width:0.5;" width="15" x="149.2876" y="252.54"/><rect fill="#F1F1F1" height="2" style="stroke:#181818;stroke-width:0.5;" width="4" x="147.2876" y="254.54"/><rect fill="#F1F1F1" height="2" style="stroke:#181818;stroke-width:0.5;" width="4" x="147.2876" y="258.54"/><text fill="#000000" font-family="sans-serif" font-size="14" lengthAdjust="spacing" textLength="106.5676" x="37.72" y="282.5059">Message Router</text></g><!--entity Agent--><g id="elem_Agent"><rect fill="#F1F1F1" height="49.0679" rx="2.5" ry="2.5" style="stroke:#181818;stroke-width:0.5;" width="79.1579" x="134.42" y="371.54"/><rect fill="#F1F1F1" height="10" style="stroke:#181818;stroke-width:0.5;" width="15" x="193.5779" y="376.54"/><rect fill="#F1F1F1" height="2" style="stroke:#181818;stroke-width:0.5;" width="4" x="191.5779" y="378.54"/><rect fill="#F1F1F1" height="2" style="stroke:#181818;stroke-width:0.5;" width="4" x="191.5779" y="382.54"/><text fill="#000000" font-family="sans-serif" font-size="14" lengthAdjust="spacing" textLength="39.1579" x="149.42" y="406.5059">Agent</text></g><!--entity LLM--><g id="elem_LLM"><rect fill="#F1F1F1" height="49.0679" rx="2.5" ry="2.5" style="stroke:#181818;stroke-width:0.5;" width="93.1718" x="190.41" y="123.54"/><rect fill="#F1F1F1" height="10" style="stroke:#181818;stroke-width:0.5;" width="15" x="263.5818" y="128.54"/><rect fill="#F1F1F1" height="2" style="stroke:#181818;stroke-width:0.5;" width="4" x="261.5818" y="130.54"/><rect fill="#F1F1F1" height="2" style="stroke:#181818;stroke-width:0.5;" width="4" x="261.5818" y="134.54"/><text fill="#000000" font-family="sans-serif" font-size="14" lengthAdjust="spacing" textLength="53.1718" x="205.41" y="158.5059">LLM API</text></g><!--entity UserDB--><g id="elem_UserDB"><rect fill="#F1F1F1" height="49.0679" rx="2.5" ry="2.5" style="stroke:#181818;stroke-width:0.5;" width="172.0335" x="22.98" y="495.54"/><rect fill="#F1F1F1" height="10" style="stroke:#181818;stroke-width:0.5;" width="15" x="175.0135" y="500.54"/><rect fill="#F1F1F1" height="2" style="stroke:#181818;stroke-width:0.5;" width="4" x="173.0135" y="502.54"/><rect fill="#F1F1F1" height="2" style="stroke:#181818;stroke-width:0.5;" width="4" x="173.0135" y="506.54"/><text fill="#000000" font-family="sans-serif" font-size="14" lengthAdjust="spacing" textLength="132.0335" x="37.98" y="530.5059">DB connector (User)</text></g><!--entity BusinessDB--><g id="elem_BusinessDB"><rect fill="#F1F1F1" height="49.0679" rx="2.5" ry="2.5" style="stroke:#181818;stroke-width:0.5;" width="199.4454" x="302.28" y="371.54"/><rect fill="#F1F1F1" height="10" style="stroke:#181818;stroke-width:0.5;" width="15" x="481.7254" y="376.54"/><rect fill="#F1F1F1" height="2" style="stroke:#181818;stroke-width:0.5;" width="4" x="479.7254" y="378.54"/><rect fill="#F1F1F1" height="2" style="stroke:#181818;stroke-width:0.5;" width="4" x="479.7254" y="382.54"/><text fill="#000000" font-family="sans-serif" font-size="14" lengthAdjust="spacing" textLength="159.4454" x="317.28" y="406.5059">DB connector (Business)</text></g><!--entity Business data--><g id="elem_Business data"><ellipse cx="258" cy="396.07" fill="#F1F1F1" rx="8" ry="8" style="stroke:#181818;stroke-width:0.5;"/><text fill="#000000" font-family="sans-serif" font-size="14" lengthAdjust="spacing" textLength="91.0417" x="212.4792" y="428.0359">Business data</text></g><!--entity Get available tools--><g id="elem_Get available tools"><ellipse cx="298" cy="520.07" fill="#F1F1F1" rx="8" ry="8" style="stroke:#181818;stroke-width:0.5;"/><text fill="#000000" font-family="sans-serif" font-size="14" lengthAdjust="spacing" textLength="120.7495" x="237.6252" y="552.0359">Get available tools</text></g><!--entity Context--><g id="elem_Context"><ellipse cx="237" cy="272.07" fill="#F1F1F1" rx="8" ry="8" style="stroke:#181818;stroke-width:0.5;"/><text fill="#000000" font-family="sans-serif" font-size="14" lengthAdjust="spacing" textLength="51.3798" x="211.3101" y="304.0359">Context</text></g><!--entity Responses--><g id="elem_Responses"><ellipse cx="96" cy="148.07" fill="#F1F1F1" rx="8" ry="8" style="stroke:#181818;stroke-width:0.5;"/><text fill="#000000" font-family="sans-serif" font-size="14" lengthAdjust="spacing" textLength="70.3497" x="60.8251" y="180.0359">Responses</text></g><!--entity User Info--><g id="elem_User Info"><ellipse cx="61" cy="396.07" fill="#F1F1F1" rx="8" ry="8" style="stroke:#181818;stroke-width:0.5;"/><text fill="#000000" font-family="sans-serif" font-size="14" lengthAdjust="spacing" textLength="60.9418" x="30.5291" y="428.0359">User Info</text></g><!--entity Front--><g id="elem_Front"><rect fill="#F1F1F1" height="49.0679" rx="2.5" ry="2.5" style="stroke:#181818;stroke-width:0.5;" width="75.2239" x="58.39" y="7"/><rect fill="#F1F1F1" height="10" style="stroke:#181818;stroke-width:0.5;" width="15" x="113.6139" y="12"/><rect fill="#F1F1F1" height="2" style="stroke:#181818;stroke-width:0.5;" width="4" x="111.6139" y="14"/><rect fill="#F1F1F1" height="2" style="stroke:#181818;stroke-width:0.5;" width="4" x="111.6139" y="18"/><text fill="#000000" font-family="sans-serif" font-size="14" lengthAdjust="spacing" textLength="35.2239" x="73.39" y="41.9659">Front</text></g><!--link Agent to Business data--><g id="link_Agent_Business data"><path d="M214.03,396.07 C225.6,396.07 227.16,396.07 238.73,396.07 " fill="#FFFFFF" fill-opacity="0.00000" id="Agent-to-Business data" style="stroke:#181818;stroke-width:1;"/><path d="M245.6518,387.6128 A9,9 0 0 0 245.6518 404.5272" fill="#FFFFFF" fill-opacity="0.00000" style="stroke:#181818;stroke-width:1.5;"/></g><!--link Business data to BusinessDB--><g id="link_Business data_BusinessDB"><path d="M267.28,396.07 C278.86,396.07 290.44,396.07 302.01,396.07 " fill="#FFFFFF" fill-opacity="0.00000" id="Business data-BusinessDB" style="stroke:#181818;stroke-width:1;"/></g><!--link Agent to Get available tools--><g id="link_Agent_Get available tools"><path d="M198.2,420.88 C226.54,448.76 264.7723,486.376 282.9523,504.266 " fill="#FFFFFF" fill-opacity="0.00000" id="Agent-to-Get available tools" style="stroke:#181818;stroke-width:1;"/><path d="M293.8179,503.0929 A9,9 0 0 0 281.9541 515.149" fill="#FFFFFF" fill-opacity="0.00000" style="stroke:#181818;stroke-width:1.5;"/></g><!--link Get available tools to Tools--><g id="link_Get available tools_Tools"><path d="M298,528.94 C298,545.82 298,586.07 298,612.02 " fill="#FFFFFF" fill-opacity="0.00000" id="Get available tools-Tools" style="stroke:#181818;stroke-width:1;"/></g><!--link Context to Agent--><g id="link_Context_Agent"><path d="M233.06,280.7 C223.85,298.54 200.59,343.58 186.16,371.52 " fill="#FFFFFF" fill-opacity="0.00000" id="Context-Agent" style="stroke:#181818;stroke-width:1;"/></g><!--link LLM to Context--><g id="link_LLM_Context"><path d="M237,172.88 C237,200.76 237,235.39 237,253.28 " fill="#FFFFFF" fill-opacity="0.00000" id="LLM-to-Context" style="stroke:#181818;stroke-width:1;"/><path d="M245.4572,260.2018 A9,9 0 0 0 228.5428 260.2018" fill="#FFFFFF" fill-opacity="0.00000" style="stroke:#181818;stroke-width:1.5;"/></g><!--link Front to Responses--><g id="link_Front_Responses"><path d="M96,56.55 C96,82.52 96,112.47 96,129.24 " fill="#FFFFFF" fill-opacity="0.00000" id="Front-to-Responses" style="stroke:#181818;stroke-width:1;"/><path d="M104.4572,136.1618 A9,9 0 0 0 87.5428 136.1618" fill="#FFFFFF" fill-opacity="0.00000" style="stroke:#181818;stroke-width:1.5;"/></g><!--link Responses to MR--><g id="link_Responses_MR"><path d="M96,156.7 C96,174.54 96,219.58 96,247.52 " fill="#FFFFFF" fill-opacity="0.00000" id="Responses-MR" style="stroke:#181818;stroke-width:1;"/></g><!--link MR to User Info--><g id="link_MR_User Info"><path d="M89.17,296.88 C81.17,324.76 71.1314,359.7788 65.9914,377.6688 " fill="#FFFFFF" fill-opacity="0.00000" id="MR-to-User Info" style="stroke:#181818;stroke-width:1;"/><path d="M72.2084,386.6569 A9,9 0 0 0 55.9516 381.9861" fill="#FFFFFF" fill-opacity="0.00000" style="stroke:#181818;stroke-width:1.5;"/></g><!--link User Info to UserDB--><g id="link_User Info_UserDB"><path d="M64,404.7 C71.02,422.54 88.74,467.58 99.73,495.52 " fill="#FFFFFF" fill-opacity="0.00000" id="User Info-UserDB" style="stroke:#181818;stroke-width:1;"/></g><!--SRC=[VP71Yi8m48RlVOgX5_NGXx3AYc1XANeI3p6T5TbkHf9K1F7TdKmQNKgnbyxC__r_maJJtuKC6WzVbepFzAilbVv5qy0z0_xUytn-2hyjKUjoK2vMGwX2vzG9eQREenMkgaUJH9DgA6ys5So_rm9mFPIN9NV6eFPaORfpQ6U2XcfPVgRBpfqDNp4wKiSkiKtYVU1YIVDOPdiP7Q2mnHJov816UPL7u9t2L5kCGocb2IahzA2kwjogOulWPQCHavqorXMVg1GMg0M_7jvyh_2wqY4l8Ihop4chqV5-7AR0gkxJHWMnXEt2slnGhyHjzxP_uYDx0W00]--></g></svg>