<svg xmlns="http://www.w3.org/2000/svg" xmlns:xlink="http://www.w3.org/1999/xlink" contentStyleType="text/css" data-diagram-type="DESCRIPTION" height="413px" preserveAspectRatio="none" style="width:972px;height:413px;background:#FFFFFF;" version="1.1" viewBox="0 0 972 413" width="972px" zoomAndPan="magnify"><defs/><g><!--cluster FrontEnd--><g id="cluster_FrontEnd"><polygon fill="#FFFFFF" fill-opacity="0.00000" points="16,16,26,6,157,6,157,117,147,127,16,127,16,16" style="stroke:#181818;stroke-width:1;"/><line style="stroke:#181818;stroke-width:1;" x1="147" x2="157" y1="16" y2="6"/><line style="stroke:#181818;stroke-width:1;" x1="16" x2="147" y1="16" y2="16"/><line style="stroke:#181818;stroke-width:1;" x1="147" x2="147" y1="16" y2="127"/><text fill="#000000" font-family="sans-serif" font-size="14" font-weight="bold" lengthAdjust="spacing" textLength="62.207" x="51.3965" y="33.5332">FrontEnd</text></g><!--cluster BackEnd--><g id="cluster_BackEnd"><polygon fill="#FFFFFF" fill-opacity="0.00000" points="16,177,26,167,730,167,730,386,720,396,16,396,16,177" style="stroke:#181818;stroke-width:1;"/><line style="stroke:#181818;stroke-width:1;" x1="720" x2="730" y1="177" y2="167"/><line style="stroke:#181818;stroke-width:1;" x1="16" x2="720" y1="177" y2="177"/><line style="stroke:#181818;stroke-width:1;" x1="720" x2="720" y1="177" y2="396"/><text fill="#000000" font-family="sans-serif" font-size="14" font-weight="bold" lengthAdjust="spacing" textLength="59.9102" x="339.0449" y="194.5332">BackEnd</text></g><!--entity Front--><g id="elem_Front"><rect fill="#F1F1F1" height="47.6094" rx="2.5" ry="2.5" style="stroke:#181818;stroke-width:0.5;" width="72.6758" x="59.5" y="55"/><rect fill="#F1F1F1" height="10" style="stroke:#181818;stroke-width:0.5;" width="15" x="112.1758" y="60"/><rect fill="#F1F1F1" height="2" style="stroke:#181818;stroke-width:0.5;" width="4" x="110.1758" y="62"/><rect fill="#F1F1F1" height="2" style="stroke:#181818;stroke-width:0.5;" width="4" x="110.1758" y="66"/><text fill="#000000" font-family="sans-serif" font-size="14" lengthAdjust="spacing" textLength="32.6758" x="74.5" y="89.5332">Front</text></g><!--entity dbcu--><g id="elem_dbcu"><rect fill="#F1F1F1" height="47.6094" rx="2.5" ry="2.5" style="stroke:#181818;stroke-width:0.5;" width="170.7031" x="188.5" y="216"/><rect fill="#F1F1F1" height="10" style="stroke:#181818;stroke-width:0.5;" width="15" x="339.2031" y="221"/><rect fill="#F1F1F1" height="2" style="stroke:#181818;stroke-width:0.5;" width="4" x="337.2031" y="223"/><rect fill="#F1F1F1" height="2" style="stroke:#181818;stroke-width:0.5;" width="4" x="337.2031" y="227"/><text fill="#000000" font-family="sans-serif" font-size="14" lengthAdjust="spacing" textLength="130.7031" x="203.5" y="250.5332">DB Connector (User)</text></g><!--entity dbcb--><g id="elem_dbcb"><rect fill="#F1F1F1" height="47.6094" rx="2.5" ry="2.5" style="stroke:#181818;stroke-width:0.5;" width="197.9512" x="395" y="216"/><rect fill="#F1F1F1" height="10" style="stroke:#181818;stroke-width:0.5;" width="15" x="572.9512" y="221"/><rect fill="#F1F1F1" height="2" style="stroke:#181818;stroke-width:0.5;" width="4" x="570.9512" y="223"/><rect fill="#F1F1F1" height="2" style="stroke:#181818;stroke-width:0.5;" width="4" x="570.9512" y="227"/><text fill="#000000" font-family="sans-serif" font-size="14" lengthAdjust="spacing" textLength="157.9512" x="410" y="250.5332">DB Connector (Business)</text></g><!--entity LLM API--><g id="elem_LLM API"><rect fill="#F1F1F1" height="47.6094" rx="2.5" ry="2.5" style="stroke:#181818;stroke-width:0.5;" width="93.6895" x="59" y="216"/><rect fill="#F1F1F1" height="10" style="stroke:#181818;stroke-width:0.5;" width="15" x="132.6895" y="221"/><rect fill="#F1F1F1" height="2" style="stroke:#181818;stroke-width:0.5;" width="4" x="130.6895" y="223"/><rect fill="#F1F1F1" height="2" style="stroke:#181818;stroke-width:0.5;" width="4" x="130.6895" y="227"/><text fill="#000000" font-family="sans-serif" font-size="14" lengthAdjust="spacing" textLength="53.6895" x="74" y="250.5332">LLM API</text></g><!--entity Agent--><g id="elem_Agent"><rect fill="#F1F1F1" height="47.6094" rx="2.5" ry="2.5" style="stroke:#181818;stroke-width:0.5;" width="76.5859" x="628.5" y="216"/><rect fill="#F1F1F1" height="10" style="stroke:#181818;stroke-width:0.5;" width="15" x="685.0859" y="221"/><rect fill="#F1F1F1" height="2" style="stroke:#181818;stroke-width:0.5;" width="4" x="683.0859" y="223"/><rect fill="#F1F1F1" height="2" style="stroke:#181818;stroke-width:0.5;" width="4" x="683.0859" y="227"/><text fill="#000000" font-family="sans-serif" font-size="14" lengthAdjust="spacing" textLength="36.5859" x="643.5" y="250.5332">Agent</text></g><!--entity Message Router--><g id="elem_Message Router"><rect fill="#F1F1F1" height="47.6094" rx="2.5" ry="2.5" style="stroke:#181818;stroke-width:0.5;" width="142.7168" x="59.5" y="324"/><rect fill="#F1F1F1" height="10" style="stroke:#181818;stroke-width:0.5;" width="15" x="182.2168" y="329"/><rect fill="#F1F1F1" height="2" style="stroke:#181818;stroke-width:0.5;" width="4" x="180.2168" y="331"/><rect fill="#F1F1F1" height="2" style="stroke:#181818;stroke-width:0.5;" width="4" x="180.2168" y="335"/><text fill="#000000" font-family="sans-serif" font-size="14" lengthAdjust="spacing" textLength="102.7168" x="74.5" y="358.5332">Message Router</text></g><!--entity Agent Tools--><g id="elem_Agent Tools"><rect fill="#F1F1F1" height="47.6094" rx="2.5" ry="2.5" style="stroke:#181818;stroke-width:0.5;" width="114.71" x="237.5" y="324"/><rect fill="#F1F1F1" height="10" style="stroke:#181818;stroke-width:0.5;" width="15" x="332.21" y="329"/><rect fill="#F1F1F1" height="2" style="stroke:#181818;stroke-width:0.5;" width="4" x="330.21" y="331"/><rect fill="#F1F1F1" height="2" style="stroke:#181818;stroke-width:0.5;" width="4" x="330.21" y="335"/><text fill="#000000" font-family="sans-serif" font-size="14" lengthAdjust="spacing" textLength="74.71" x="252.5" y="358.5332">Agent Tools</text></g><!--entity BusinessDB--><g id="elem_BusinessDB"><path d="M859,334.5 C859,324.5 907.1274,324.5 907.1274,324.5 C907.1274,324.5 955.2549,324.5 955.2549,334.5 L955.2549,361.1094 C955.2549,371.1094 907.1274,371.1094 907.1274,371.1094 C907.1274,371.1094 859,371.1094 859,361.1094 L859,334.5 " fill="#F1F1F1" style="stroke:#181818;stroke-width:0.5;"/><path d="M859,334.5 C859,344.5 907.1274,344.5 907.1274,344.5 C907.1274,344.5 955.2549,344.5 955.2549,334.5 " fill="#FFFFFF" fill-opacity="0.00000" style="stroke:#181818;stroke-width:0.5;"/><text fill="#000000" font-family="sans-serif" font-size="14" lengthAdjust="spacing" textLength="76.2549" x="869" y="363.0332">BusinessDB</text></g><!--entity UserDB--><g id="elem_UserDB"><path d="M754.5,334.5 C754.5,324.5 789.0034,324.5 789.0034,324.5 C789.0034,324.5 823.5068,324.5 823.5068,334.5 L823.5068,361.1094 C823.5068,371.1094 789.0034,371.1094 789.0034,371.1094 C789.0034,371.1094 754.5,371.1094 754.5,361.1094 L754.5,334.5 " fill="#F1F1F1" style="stroke:#181818;stroke-width:0.5;"/><path d="M754.5,334.5 C754.5,344.5 789.0034,344.5 789.0034,344.5 C789.0034,344.5 823.5068,344.5 823.5068,334.5 " fill="#FFFFFF" fill-opacity="0.00000" style="stroke:#181818;stroke-width:0.5;"/><text fill="#000000" font-family="sans-serif" font-size="14" lengthAdjust="spacing" textLength="49.0068" x="764.5" y="363.0332">UserDB</text></g><!--link FrontEnd to BackEnd--><g id="link_FrontEnd_BackEnd"><path d="M24,133.8312 C24,142.8964 24,149.8981 24,159.5275 C24,161.9348 24,158.3422 24,160.7406 " fill="#FFFFFF" fill-opacity="0.00000" id="FrontEnd-BackEnd" style="stroke:#181818;stroke-width:2;"/><polygon fill="#181818" points="24,127.8312,20,136.8312,24,132.8312,28,136.8312,24,127.8312" style="stroke:#181818;stroke-width:2;"/><polygon fill="#181818" points="24,166.7406,28,157.7406,24,161.7406,20,157.7406,24,166.7406" style="stroke:#181818;stroke-width:2;"/></g><!--link dbcu to UserDB--><g id="link_dbcu_UserDB"><path d="M365.5027,261.4894 C371.7127,262.7894 372.01,262.82 378,264 C530.25,294.1 571.69,285.35 722,324 C732.6,326.73 738.2592,328.3798 748.5292,331.9298 " fill="#FFFFFF" fill-opacity="0.00000" id="dbcu-UserDB" style="stroke:#181818;stroke-width:1;"/><polygon fill="#181818" points="359.63,260.26,367.6195,266.0192,364.5239,261.2845,369.2586,258.189,359.63,260.26" style="stroke:#181818;stroke-width:1;"/><polygon fill="#181818" points="754.2,333.89,747.0006,327.1692,749.4744,332.2565,744.387,334.7302,754.2,333.89" style="stroke:#181818;stroke-width:1;"/></g><!--link dbcb to BusinessDB--><g id="link_dbcb_BusinessDB"><path d="M598.8989,263.2037 C668.6889,278.6137 758.23,299.74 841,324 C846.82,325.71 847.1932,325.7369 853.1832,327.7169 " fill="#FFFFFF" fill-opacity="0.00000" id="dbcb-BusinessDB" style="stroke:#181818;stroke-width:1;"/><polygon fill="#181818" points="593.04,261.91,600.9659,267.7564,597.9224,262.9881,602.6908,259.9446,593.04,261.91" style="stroke:#181818;stroke-width:1;"/><polygon fill="#181818" points="858.88,329.6,851.5901,322.9775,854.1326,328.0308,849.0793,330.5732,858.88,329.6" style="stroke:#181818;stroke-width:1;"/></g><!--SRC=[TP312i8m44Jl-Ogb9ptq3soXiGf22o9w4Wzf4egekvAa9_7VJQALKkiUSfYTjsG6IMbO6qAtGWKF1duatUw46jrxmPwCOR1n8IzJBjN83evH35DoM1AYbeuCp0vMctdSdNwnvY_6Etj6RUqqcbHL3SLsaupqelNls5lxCwBLiAFEQJD6aiZ0dkXgan1L2ISQONtSpnTAFX13d22mRsUBBClxQbYiOf6cUM-C8QCmFFS2]--></g></svg>