<svg xmlns="http://www.w3.org/2000/svg" xmlns:xlink="http://www.w3.org/1999/xlink" contentStyleType="text/css" data-diagram-type="SEQUENCE" height="499px" preserveAspectRatio="none" style="width:459px;height:499px;background:#FFFFFF;" version="1.1" viewBox="0 0 459 499" width="459px" zoomAndPan="magnify"><defs/><g><g><title>Agente</title><rect fill="#FFFFFF" height="122.118" style="stroke:#181818;stroke-width:1;" width="10" x="199.926" y="117.7739"/></g><g><title>Agente</title><rect fill="#FFFFFF" height="95.118" style="stroke:#181818;stroke-width:1;" width="10" x="199.926" y="303.304"/></g><g><title>Ciudadano</title><rect fill="#FFFFFF" fill-opacity="0.00000" height="332.3541" width="8" x="39.5809" y="84.0679"/><line style="stroke:#181818;stroke-width:0.5;stroke-dasharray:5.0,5.0;" x1="43" x2="43" y1="84.0679" y2="416.4221"/></g><g><title>Agente</title><rect fill="#FFFFFF" fill-opacity="0.00000" height="332.3541" width="8" x="200.926" y="84.0679"/><line style="stroke:#181818;stroke-width:0.5;stroke-dasharray:5.0,5.0;" x1="204.3991" x2="204.3991" y1="84.0679" y2="416.4221"/></g><g><title>BBDD</title><rect fill="#FFFFFF" fill-opacity="0.00000" height="332.3541" width="8" x="339.8021" y="84.0679"/><line style="stroke:#181818;stroke-width:0.5;stroke-dasharray:5.0,5.0;" x1="343.4822" x2="343.4822" y1="84.0679" y2="416.4221"/></g><g><title>API externa</title><rect fill="#FFFFFF" fill-opacity="0.00000" height="332.3541" width="8" x="413.2928" y="84.0679"/><line style="stroke:#181818;stroke-width:0.5;stroke-dasharray:5.0,5.0;" x1="417.122" x2="417.122" y1="84.0679" y2="416.4221"/></g><g><text fill="#000000" font-family="sans-serif" font-size="14" lengthAdjust="spacing" textLength="71.1617" x="5" y="79.9659">Ciudadano</text><ellipse cx="43.5809" cy="13.5" fill="#E2E2F0" rx="8" ry="8" style="stroke:#181818;stroke-width:0.5;"/><path d="M43.5809,21.5 L43.5809,48.5 M30.5809,29.5 L56.5809,29.5 M43.5809,48.5 L30.5809,63.5 M43.5809,48.5 L56.5809,63.5 " fill="#FFFFFF" fill-opacity="0.00000" style="stroke:#181818;stroke-width:0.5;"/></g><g><text fill="#000000" font-family="sans-serif" font-size="14" lengthAdjust="spacing" textLength="71.1617" x="5" y="430.388">Ciudadano</text><ellipse cx="43.5809" cy="442.99" fill="#E2E2F0" rx="8" ry="8" style="stroke:#181818;stroke-width:0.5;"/><path d="M43.5809,450.99 L43.5809,477.99 M30.5809,458.99 L56.5809,458.99 M43.5809,477.99 L30.5809,492.99 M43.5809,477.99 L56.5809,492.99 " fill="#FFFFFF" fill-opacity="0.00000" style="stroke:#181818;stroke-width:0.5;"/></g><g><rect fill="#E2E2F0" height="33.0679" rx="2.5" ry="2.5" style="stroke:#181818;stroke-width:0.5;" width="61.0538" x="174.3991" y="50"/><text fill="#000000" font-family="sans-serif" font-size="14" lengthAdjust="spacing" textLength="47.0538" x="181.3991" y="71.9659">Agente</text></g><g><rect fill="#E2E2F0" height="33.0679" rx="2.5" ry="2.5" style="stroke:#181818;stroke-width:0.5;" width="61.0538" x="174.3991" y="415.4221"/><text fill="#000000" font-family="sans-serif" font-size="14" lengthAdjust="spacing" textLength="47.0538" x="181.3991" y="437.388">Agente</text></g><g><text fill="#000000" font-family="sans-serif" font-size="14" lengthAdjust="spacing" textLength="38.6398" x="321.4822" y="79.9659">BBDD</text><path d="M325.8021,29 C325.8021,19 343.8021,19 343.8021,19 C343.8021,19 361.8021,19 361.8021,29 L361.8021,55 C361.8021,65 343.8021,65 343.8021,65 C343.8021,65 325.8021,65 325.8021,55 L325.8021,29 " fill="#E2E2F0" style="stroke:#181818;stroke-width:1.5;"/><path d="M325.8021,29 C325.8021,39 343.8021,39 343.8021,39 C343.8021,39 361.8021,39 361.8021,29 " fill="#FFFFFF" fill-opacity="0.00000" style="stroke:#181818;stroke-width:1.5;"/></g><g><text fill="#000000" font-family="sans-serif" font-size="14" lengthAdjust="spacing" textLength="38.6398" x="321.4822" y="430.388">BBDD</text><path d="M325.8021,444.49 C325.8021,434.49 343.8021,434.49 343.8021,434.49 C343.8021,434.49 361.8021,434.49 361.8021,444.49 L361.8021,470.49 C361.8021,480.49 343.8021,480.49 343.8021,480.49 C343.8021,480.49 325.8021,480.49 325.8021,470.49 L325.8021,444.49 " fill="#E2E2F0" style="stroke:#181818;stroke-width:1.5;"/><path d="M325.8021,444.49 C325.8021,454.49 343.8021,454.49 343.8021,454.49 C343.8021,454.49 361.8021,454.49 361.8021,444.49 " fill="#FFFFFF" fill-opacity="0.00000" style="stroke:#181818;stroke-width:1.5;"/></g><g><text fill="#000000" font-family="sans-serif" font-size="14" lengthAdjust="spacing" textLength="76.3417" x="376.122" y="79.9659">API externa</text><path d="M396.7928,37 L396.7928,61 M396.7928,49 L413.7928,49 " fill="#FFFFFF" fill-opacity="0.00000" style="stroke:#181818;stroke-width:0.5;"/><ellipse cx="425.7928" cy="49" fill="#E2E2F0" rx="12" ry="12" style="stroke:#181818;stroke-width:0.5;"/></g><g><text fill="#000000" font-family="sans-serif" font-size="14" lengthAdjust="spacing" textLength="76.3417" x="376.122" y="430.388">API externa</text><path d="M396.7928,438.49 L396.7928,462.49 M396.7928,450.49 L413.7928,450.49 " fill="#FFFFFF" fill-opacity="0.00000" style="stroke:#181818;stroke-width:0.5;"/><ellipse cx="425.7928" cy="450.49" fill="#E2E2F0" rx="12" ry="12" style="stroke:#181818;stroke-width:0.5;"/></g><g><title>Agente</title><rect fill="#FFFFFF" height="122.118" style="stroke:#181818;stroke-width:1;" width="10" x="199.926" y="117.7739"/></g><g><title>Agente</title><rect fill="#FFFFFF" height="95.118" style="stroke:#181818;stroke-width:1;" width="10" x="199.926" y="303.304"/></g><g><polygon fill="#181818" points="187.926,113.7739,197.926,117.7739,187.926,121.7739,191.926,117.7739" style="stroke:#181818;stroke-width:1;"/><line style="stroke:#181818;stroke-width:1;" x1="43.5809" x2="193.926" y1="117.7739" y2="117.7739"/><text fill="#000000" font-family="sans-serif" font-size="13" lengthAdjust="spacing" textLength="53.716" x="50.5809" y="111.9649">Consulta</text></g><g><polygon fill="#181818" points="331.8021,145.4799,341.8021,149.4799,331.8021,153.4799,335.8021,149.4799" style="stroke:#181818;stroke-width:1;"/><line style="stroke:#181818;stroke-width:1;" x1="209.926" x2="337.8021" y1="149.4799" y2="149.4799"/><text fill="#000000" font-family="sans-serif" font-size="13" lengthAdjust="spacing" textLength="109.8761" x="216.926" y="143.6709">Consulta de datos</text></g><g><polygon fill="#181818" points="220.926,159.4799,210.926,163.4799,220.926,167.4799,216.926,163.4799" style="stroke:#181818;stroke-width:1;"/><line style="stroke:#181818;stroke-width:1;stroke-dasharray:2.0,2.0;" x1="214.926" x2="342.8021" y1="163.4799" y2="163.4799"/></g><g><line style="stroke:#181818;stroke-width:1;" x1="209.926" x2="251.926" y1="195.186" y2="195.186"/><line style="stroke:#181818;stroke-width:1;" x1="251.926" x2="251.926" y1="195.186" y2="208.186"/><line style="stroke:#181818;stroke-width:1;" x1="210.926" x2="251.926" y1="208.186" y2="208.186"/><polygon fill="#181818" points="220.926,204.186,210.926,208.186,220.926,212.186,216.926,208.186" style="stroke:#181818;stroke-width:1;"/><text fill="#000000" font-family="sans-serif" font-size="13" lengthAdjust="spacing" textLength="64.051" x="216.926" y="189.377">Procesado</text></g><g><polygon fill="#181818" points="54.5809,235.892,44.5809,239.892,54.5809,243.892,50.5809,239.892" style="stroke:#181818;stroke-width:1;"/><line style="stroke:#181818;stroke-width:1;stroke-dasharray:2.0,2.0;" x1="48.5809" x2="203.926" y1="239.892" y2="239.892"/><text fill="#000000" font-family="sans-serif" font-size="13" lengthAdjust="spacing" textLength="63.2191" x="60.5809" y="234.083">Respuesta</text></g><g><polygon fill="#181818" points="54.5809,267.598,44.5809,271.598,54.5809,275.598,50.5809,271.598" style="stroke:#181818;stroke-width:1;"/><line style="stroke:#181818;stroke-width:1;" x1="48.5809" x2="203.926" y1="271.598" y2="271.598"/><text fill="#000000" font-family="sans-serif" font-size="13" lengthAdjust="spacing" textLength="137.3451" x="60.5809" y="265.789">Propuesta de acciones</text></g><g><polygon fill="#181818" points="187.926,299.304,197.926,303.304,187.926,307.304,191.926,303.304" style="stroke:#181818;stroke-width:1;"/><line style="stroke:#181818;stroke-width:1;" x1="43.5809" x2="193.926" y1="303.304" y2="303.304"/><text fill="#000000" font-family="sans-serif" font-size="13" lengthAdjust="spacing" textLength="118.0011" x="50.5809" y="297.495">Selecci&#243;n de acci&#243;n</text></g><g><polygon fill="#181818" points="405.2928,331.01,415.2928,335.01,405.2928,339.01,409.2928,335.01" style="stroke:#181818;stroke-width:1;"/><line style="stroke:#181818;stroke-width:1;" x1="209.926" x2="411.2928" y1="335.01" y2="335.01"/><text fill="#000000" font-family="sans-serif" font-size="13" lengthAdjust="spacing" textLength="40.04" x="216.926" y="329.201">Acci&#243;n</text></g><g><polygon fill="#181818" points="220.926,362.716,210.926,366.716,220.926,370.716,216.926,366.716" style="stroke:#181818;stroke-width:1;"/><line style="stroke:#181818;stroke-width:1;stroke-dasharray:2.0,2.0;" x1="214.926" x2="416.2928" y1="366.716" y2="366.716"/><text fill="#000000" font-family="sans-serif" font-size="13" lengthAdjust="spacing" textLength="63.2191" x="226.926" y="360.907">Respuesta</text></g><g><polygon fill="#181818" points="54.5809,394.4221,44.5809,398.4221,54.5809,402.4221,50.5809,398.4221" style="stroke:#181818;stroke-width:1;"/><line style="stroke:#181818;stroke-width:1;stroke-dasharray:2.0,2.0;" x1="48.5809" x2="203.926" y1="398.4221" y2="398.4221"/><text fill="#000000" font-family="sans-serif" font-size="13" lengthAdjust="spacing" textLength="63.2191" x="60.5809" y="392.6131">Respuesta</text></g><!--SRC=[bP1D2i8m48NtESNWlXVeGkZFnbtH4qoJGG8bASb4z5mUmOkPq3OD8eAh_CnxtviPb6mTT3eeL6YicD6nbdf6mz1SoJ09XOmZUeAsxNinsc0KkWSSck44T6To1W-07k9RY4o2whW2QkYiyM5Y508bwnioRUpbIDe4tvMW26AkzIBzGvLXXMEZ3yvAygXihiLYxgE6C_ava8_nYZxp2rpXYCJ5aTf0ARKrvB-FTg69ek3rD9isNd_D6RTKGxFgqWghWhQt-lyeRm00]--></g></svg>